<?xml version="1.0" encoding="utf-8"?>
<!-- Generator: Adobe Illustrator 24.3.0, SVG Export Plug-In . SVG Version: 6.00 Build 0)  -->
<svg version="1.1" xmlns="http://www.w3.org/2000/svg" xmlns:xlink="http://www.w3.org/1999/xlink" x="0px" y="0px"
	 viewBox="30.8 23.8 153.9 51.8" style="enable-background:new 0 0 216 112.1;" xml:space="preserve">
<style type="text/css">
	.st0{fill:#8DC63F;}
	.st1{fill:#232A63;}
	.st2{fill:#003473;}
</style>
<g id="Leviton">
	<path class="st0" d="M128.5,62.8c0,3.3,1.3,6.4,3.6,8.6c2.3,2.3,5.5,3.7,9,3.7H178V23.8h-49.5V62.8z"/>
	<g>
		<path class="st1" d="M153.9,62.8c0,6.8-5.7,12.4-12.7,12.4c-7,0-12.7-5.5-12.7-12.4c0-6.8,5.7-12.4,12.7-12.4
			C148.2,50.4,153.9,55.9,153.9,62.8z M141.2,56.8c-3.2,0-5.7,2.7-5.7,6c0,3.3,2.6,6,5.7,6c3.2,0,5.7-2.7,5.7-6
			C146.9,59.5,144.4,56.8,141.2,56.8z"/>
		<g>
			<path class="st1" d="M30.8,50.8v24H47v-6.3c0,0-7.9,0-9.5,0c0-1.7,0-17.6,0-17.6H30.8z"/>
		</g>
		<g>
			<path class="st1" d="M50.7,50.8v24h18v-6.2c0,0-9.6,0-11.2,0c0-0.9,0-2.4,0-3.3c1.6,0,8.1,0,8.1,0v-5c0,0-6.5,0-8.1,0
				c0-0.9,0-2.3,0-3.2c1.6,0,11.1,0,11.1,0v-6.2H50.7z"/>
		</g>
		<g>
			<path class="st1" d="M88.7,50.8c0,0-3.8,10.2-5.1,13.7c-1.3-3.5-5.1-13.7-5.1-13.7H71l9.7,24.1h5.6L96,50.8H88.7z"/>
		</g>
		<g>
			<path class="st1" d="M98.8,50.8v24h6.8v-24H98.8z"/>
		</g>
		<g>
			<path class="st1" d="M109.8,50.8v6.4c0,0,4.5,0,6,0c0,1.7,0,17.6,0,17.6h6.8c0,0,0-15.9,0-17.6c1.4,0,5.9,0,5.9,0v-6.4H109.8z"/>
		</g>
		<g>
			<path class="st1" d="M171.2,50.8c0,0,0,8.5,0,12.1c-2.4-3.2-8.9-12.1-8.9-12.1h-5.9v24.4h6.7c0,0,0-8.9,0-12.5
				c2.4,3.2,9.2,12.5,9.2,12.5h5.6V50.8H171.2z"/>
		</g>
	</g>
	<g>
		<path class="st2" d="M182.4,75.6c-1.3,0-2.3-1-2.3-2.3s1-2.3,2.3-2.3c1.3,0,2.3,1,2.3,2.3S183.7,75.6,182.4,75.6z M182.4,71.4
			c-1,0-1.9,0.8-1.9,1.9c0,1,0.8,1.9,1.9,1.9c1,0,1.9-0.8,1.9-1.9C184.3,72.3,183.4,71.4,182.4,71.4z M183,74.7l-0.6-1
			c0,0,0-0.1,0-0.1h-0.6v1.1h-0.5v-2.8h1.1c0.7,0,1,0.4,1,0.9c0,0.4-0.2,0.7-0.6,0.8l0.8,1.2H183z M182.4,72.3h-0.6v0.9h0.6
			c0.4,0,0.6-0.1,0.6-0.4C183,72.4,182.8,72.3,182.4,72.3z"/>
	</g>
</g>
<g id="Slug">
</g>
</svg>
