<svg xmlns="http://www.w3.org/2000/svg" width="180" height="31" viewBox="0 0 160 31">
	<defs>
		<clipPath id="pxyba">
			<path d="M156.004 26.814V6.127H23.767v20.687h132.237z" />
		</clipPath>
		<clipPath id="pxybb">
			<path d="M171 6.82h12.772v19.916H171z" />
		</clipPath>
		<clipPath id="pxybc">
			<path d="M171 31h134.746V0H171z" />
		</clipPath>
	</defs>
	<g>
		<g>
			<g>
				<g>
					<path fill="#333" d="M12.054 10.789a5.5 5.5 0 0 0-.585-.03c-.2 0-.386.01-.581.03l-.591-5.728c.388-.043.775-.061 1.172-.061.39 0 .78.018 1.161.058zm-2.331.296a5.12 5.12 0 0 0-.552.202c-.18.075-.356.165-.525.257L5.86 6.483a11.292 11.292 0 0 1 2.155-.923zm-1.945 1c-.144.124-.289.258-.421.397a5.455 5.455 0 0 0-.385.44L2.455 9.383c.238-.302.496-.599.772-.882.272-.28.556-.548.848-.798zM6.386 13.85c-.09.17-.171.347-.247.532a6.72 6.72 0 0 0-.188.55L.437 13.341a14.6 14.6 0 0 1 .384-1.119c.15-.363.311-.718.49-1.055zM5.76 15.98a5.51 5.51 0 0 0-.027.584c0 .2.007.393.027.585l-5.706.593C.017 17.353 0 16.96 0 16.563c0-.393.017-.78.054-1.166zm.278 2.357c.054.187.121.372.197.552.076.182.163.359.254.528l-5.021 2.786a13.896 13.896 0 0 1-.513-1.062c-.152-.364-.285-.73-.398-1.097zm1.054 1.932c.126.15.259.293.4.426.141.137.289.268.439.385l-3.552 4.534c-.306-.241-.6-.498-.89-.772a14.239 14.239 0 0 1-.796-.854zm1.704 1.401c.171.087.342.17.525.242.181.071.36.14.547.19L8.29 27.615c-.372-.107-.74-.234-1.1-.385a10.502 10.502 0 0 1-1.051-.488zm2.064.545c.194.02.382.026.582.026.194 0 .388-.006.573-.026l.59 5.73a11.95 11.95 0 0 1-2.312 0zm2.36-.275c.185-.057.37-.122.55-.201.184-.076.356-.16.527-.257l2.789 5.042c-.34.184-.695.358-1.058.512-.364.156-.73.29-1.103.403zm1.92-1.045a6.017 6.017 0 0 0 .812-.836l4.511 3.533a11.392 11.392 0 0 1-1.618 1.68zm1.393-1.744a5.224 5.224 0 0 0 .437-1.085l5.513 1.6c-.11.369-.24.744-.383 1.108-.15.367-.313.72-.492 1.058zm.64-2.046c.024-.196.032-.39.032-.587 0-.196-.008-.386-.031-.584l5.708-.593a11.77 11.77 0 0 1 0 2.345zm-.27-2.363a6.004 6.004 0 0 0-.455-1.074l5.02-2.785c.185.34.357.694.51 1.062.154.357.288.726.401 1.096zm-1.041-1.905a4.537 4.537 0 0 0-.398-.428 4.984 4.984 0 0 0-.437-.387l3.54-4.552c.3.24.596.504.88.776.285.275.55.562.797.857zm-1.733-1.421a6.262 6.262 0 0 0-.533-.249 6.101 6.101 0 0 0-.546-.19l1.58-5.535c.373.111.744.243 1.115.387.361.149.716.312 1.051.493z" />
				</g>
				<g>
					<g />
					<g clip-path="url(#pxyba)">
						<path fill="#333" d="M71.701 10.876H64.03v-4.12h20.684v4.12h-7.653v15.441H71.7zm48.233 11.86c4.805 0 6.292-2.819 6.548-6.09.273-3.52-1.69-6.644-6.548-6.595-4.805.053-6.134 3.162-6.134 6.694 0 3.172 1.485 5.99 6.134 5.99zm.063-16.609c7.812 0 12.418 4.219 12.418 10.207 0 5.818-4.687 10.476-12.417 10.48-7.812.002-12.409-4.662-12.409-10.48 0-5.988 4.597-10.207 12.408-10.207zm36.007.598v19.592h-6.212L139.48 13.824h-.07v12.493h-5.385V6.754h6.133l10.333 12.728h.066V6.754zM23.767 6.724h5.377v15.442h11.49v4.165H23.768zm39.043 11.98c0 5.453-4.295 8.11-11.046 8.11-6.789 0-11.002-2.628-11.002-8.11V6.724h5.347v11.978c-.004 3.013 1.779 4.181 5.655 4.181 3.962 0 5.687-1.184 5.687-4.18V6.724h5.359zm27.973-3.36h6.673c2.476 0 4.196-.269 4.196-2.302 0-1.948-1.72-2.294-4.196-2.294h-6.673zm-4.897-8.62h13.609c5.22-.315 7.456 1.839 7.534 4.982.062 2.37-1.576 4.323-4.163 5.13l.027.068c2.045.083 2.791.293 3.484 4.602.235 1.503.564 4.573 1.593 4.788h-3.986c-1.502.089-1.835-1.989-2.264-4.558-.338-2.08-.715-3.087-2.81-3.057h-8.054v7.615h-4.97zm22.085 19.57h.235a.588.588 0 0 1-.235 0z" />
					</g>
				</g>
			</g>
		</g>
	</g>
</svg>
