<?xml version="1.0" encoding="utf-8"?>
<!-- Generator: Adobe Illustrator 19.0.0, SVG Export Plug-In . SVG Version: 6.00 Build 0)  -->
<svg version="1.1" id="layer" xmlns="http://www.w3.org/2000/svg" xmlns:xlink="http://www.w3.org/1999/xlink" x="0px" y="0px"
	 viewBox="-153 -46 652 652" style="enable-background:new -153 -46 652 652;" xml:space="preserve">
<style type="text/css">
	.st0{fill:#E73127;}
	.st1{fill:#FFFFFF;}
</style>
<rect x="-253.9" y="25.7" class="st0" width="844.9" height="500"/>
<path class="st1" d="M26,439.7h10.1L26,405.1v0.9l-11,33.7H26z M515,472.6h-55.7v-86.9h16.9v70.9H515V472.6z M445,472.6h-56.5v-86.9
	h16.9v70.9H445V472.6z M371.7,472.6h-59.9v-86.8H370v15.2h-41.3v18.6h37.9v15.2h-37.9v21.9h43V472.6z M298.3,385.7l-21.9,86.9h-16
	L250.3,422l-2.5-16.9l-3.3,16.9l-9.3,50.6h-15.2l-23.6-86.9h18.6l10.1,49.8l2.5,13.5l2.5-13.5l8.4-49.8h17.7l9.3,49.8L268,449
	l2.5-13.5l11-49.8H298.3z M143.2,472.6h-17.7L91.8,411v61.6h-16v-86.9h18.6l32,59.9v-59.9h16.8V472.6z M65.6,472.6H46.2l-5.1-17.7
	H26H10.8l-5.9,17.7h-17.7l29.5-86.8H26h10.1L65.6,472.6z M-22.1,472.6h-61.6v-86.8h59.9v15.2h-43v18.6h39.6v15.2h-39.6v21.9h44.7
	V472.6z M-99.7,472.6h-16v-59v-6.7v-7.6l-16,73.4h-16.9l-16-73.4c0,1.7,0,4.2,0.8,7.6v6.7v59h-16v-86.9h24.5l15.2,68.3l15.2-68.3
	h25.3V472.6z M553,363h-769.8v128.2H553V363z"/>
<polygon class="st1" points="97.7,58.6 94.3,58.6 -13.6,250.2 -13.6,58.6 -59.2,58.6 -63.4,58.6 -216.8,330.9 -167.9,330.9 
	-59.2,139 -59.2,330.9 -10.3,330.9 97.7,138.3 97.7,330.9 142.4,330.9 142.4,58.6 "/>
<polygon class="st1" points="501.5,58.6 393.6,251.2 393.6,58.6 348.9,58.6 345.6,58.6 236.8,251.6 236.8,58.6 192.1,58.6 
	192.1,330.9 241,330.9 348.9,138.4 348.9,330.9 397,330.9 550.4,58.6 "/>
</svg>
