<?xml version="1.0" encoding="UTF-8"?>
<svg id="uuid-54fa5fe5-ee67-4a61-afd8-b6a5ae9325cd" data-name="Capa 2" xmlns="http://www.w3.org/2000/svg" viewBox="0 0 83.25 33.99">
  <defs>
    <style>
      .uuid-cdfc001b-b9ad-4073-aa14-0b4e1e300f7f, .uuid-c30b9441-a270-4beb-87fb-0d0c9d18bb41 {
        fill: #fff;
      }

      .uuid-65f3fb05-17f4-4e81-acde-548c35304e28 {
        letter-spacing: 0em;
      }

      .uuid-24e518f7-5aaf-4c06-8daa-f2f55545aa56 {
        letter-spacing: .01em;
      }

      .uuid-10da7415-82d7-4985-ad70-ed9f4381ac5b {
        letter-spacing: 0em;
      }

      .uuid-233d1fa5-dca1-4afa-b699-815efc60eb40 {
        letter-spacing: 0em;
      }

      .uuid-e2ff344a-e207-4f33-9655-d75f4bc74f7d {
        letter-spacing: 0em;
      }

      .uuid-aadbf3f7-8e50-43ca-9a3c-51fa237e4bdf {
        font-size: 10.84px;
      }

      .uuid-aadbf3f7-8e50-43ca-9a3c-51fa237e4bdf, .uuid-1eb64408-43dd-49ec-81a6-7b77072c8f00 {
        fill: #1d1d1b;
        font-family: AcuminVariableConcept, 'Acumin Variable Concept';
        font-variation-settings: 'wght' 194, 'wdth' 100, 'slnt' 0;
      }

      .uuid-c0fe3701-b7f4-4371-8d68-9429bb02dab3 {
        letter-spacing: 0em;
      }

      .uuid-9fb5cc6b-f98a-42cb-b933-0adda31f0bbe {
        letter-spacing: 0em;
      }

      .uuid-e828393b-ef55-44f3-87fa-d9a39cce9ec4 {
        letter-spacing: 0em;
      }

      .uuid-1eb64408-43dd-49ec-81a6-7b77072c8f00 {
        font-size: 5.76px;
      }

      .uuid-04ba88fc-084f-438b-a62b-4a6f776ab961 {
        letter-spacing: 0em;
      }

      .uuid-07bbfe59-38ab-4147-8a4f-506c41d0568c {
        letter-spacing: 0em;
      }

      .uuid-379338aa-93a3-4ea1-b442-918b111831a8 {
        letter-spacing: 0em;
      }

      .uuid-dbd79df3-9e5c-48b7-878d-e433a407761f, .uuid-71e3e00f-5498-4ed5-a144-a3e6db496b34 {
        stroke-width: .2px;
      }

      .uuid-dbd79df3-9e5c-48b7-878d-e433a407761f, .uuid-c30b9441-a270-4beb-87fb-0d0c9d18bb41 {
        stroke: #1d1d1b;
        stroke-miterlimit: 10;
      }

      .uuid-dbd79df3-9e5c-48b7-878d-e433a407761f, .uuid-e2dd4cd2-3659-4826-8d21-fdad4387738b {
        fill: #fbea1f;
      }

      .uuid-71e3e00f-5498-4ed5-a144-a3e6db496b34, .uuid-17d4c9dd-4472-4847-81f1-2ad63693d182, .uuid-a862f9c2-0b75-436f-9da1-d755034748ba {
        fill: none;
        stroke: #000;
        stroke-linecap: round;
        stroke-linejoin: round;
      }

      .uuid-17d4c9dd-4472-4847-81f1-2ad63693d182 {
        stroke-width: .3px;
      }

      .uuid-c30b9441-a270-4beb-87fb-0d0c9d18bb41 {
        stroke-width: .1px;
      }

      .uuid-a862f9c2-0b75-436f-9da1-d755034748ba {
        stroke-width: 0px;
      }

      .uuid-5d3afaf7-40a3-4f2f-8dc6-62f4d7cc37c8 {
        letter-spacing: 0em;
      }
    </style>
  </defs>
  <g id="uuid-d5cd6491-7182-487b-bbe4-f6ad819d747f" data-name="Capa 1">
    <g>
      <g>
        <polygon class="uuid-dbd79df3-9e5c-48b7-878d-e433a407761f" points="69.65 15.32 69.65 15.32 69.65 15.32 69.65 15.32"/>
        <rect class="uuid-dbd79df3-9e5c-48b7-878d-e433a407761f" x="69.65" y="15.32" width="0" height="0"/>
        <polygon class="uuid-dbd79df3-9e5c-48b7-878d-e433a407761f" points="69.65 15.32 69.65 15.32 69.65 15.32 69.65 15.32"/>
        <polygon class="uuid-dbd79df3-9e5c-48b7-878d-e433a407761f" points="69.65 15.32 69.65 15.32 69.65 15.32 69.65 15.32"/>
        <polygon class="uuid-dbd79df3-9e5c-48b7-878d-e433a407761f" points="69.65 15.32 69.65 15.32 69.65 15.32 69.65 15.32"/>
        <polygon class="uuid-dbd79df3-9e5c-48b7-878d-e433a407761f" points="69.65 15.32 69.65 15.32 69.65 15.32 69.65 15.32"/>
        <polygon class="uuid-dbd79df3-9e5c-48b7-878d-e433a407761f" points="69.65 15.32 69.65 15.32 69.65 15.32 69.65 15.32"/>
        <polygon class="uuid-dbd79df3-9e5c-48b7-878d-e433a407761f" points="69.65 15.32 69.65 15.32 69.65 15.32 69.65 15.32"/>
        <polygon class="uuid-dbd79df3-9e5c-48b7-878d-e433a407761f" points="69.65 15.32 69.65 15.32 69.65 15.32 69.65 15.32"/>
        <polygon class="uuid-dbd79df3-9e5c-48b7-878d-e433a407761f" points="69.65 15.32 69.65 15.32 69.65 15.32 69.65 15.32 69.65 15.32 69.65 15.32"/>
        <path class="uuid-dbd79df3-9e5c-48b7-878d-e433a407761f" d="m65.48,2.48c-.68.22-1.33.5-1.95.82l6.12,12.02-4.17-12.84Z"/>
        <path class="uuid-dbd79df3-9e5c-48b7-878d-e433a407761f" d="m69.65,1.82c-.72,0-1.42.07-2.11.18l2.11,13.32V1.82Z"/>
        <path class="uuid-dbd79df3-9e5c-48b7-878d-e433a407761f" d="m69.65,15.32l-6.12-12.02c-.63.32-1.23.69-1.8,1.11l7.93,10.91h0Z"/>
        <path class="uuid-dbd79df3-9e5c-48b7-878d-e433a407761f" d="m69.65,15.32h0s-2.11-13.32-2.11-13.32c-.71.11-1.4.27-2.06.48l4.17,12.84h0Z"/>
        <path class="uuid-dbd79df3-9e5c-48b7-878d-e433a407761f" d="m69.65,15.32l-7.93-10.91c-.57.42-1.12.87-1.62,1.36l9.55,9.55h0Z"/>
        <path class="uuid-dbd79df3-9e5c-48b7-878d-e433a407761f" d="m69.65,15.32l-9.55-9.55c-.5.5-.95,1.05-1.36,1.62l10.91,7.93h0Z"/>
        <path class="uuid-dbd79df3-9e5c-48b7-878d-e433a407761f" d="m57.63,9.19c-.32.63-.6,1.28-.82,1.95l12.84,4.17-12.02-6.12Z"/>
        <path class="uuid-dbd79df3-9e5c-48b7-878d-e433a407761f" d="m69.65,15.32h0s-12.84-4.17-12.84-4.17c-.22.67-.37,1.36-.48,2.06l13.32,2.11h0Z"/>
        <path class="uuid-dbd79df3-9e5c-48b7-878d-e433a407761f" d="m69.65,15.32l-10.91-7.93c-.41.57-.79,1.17-1.11,1.8l12.02,6.12h0Z"/>
        <path class="uuid-dbd79df3-9e5c-48b7-878d-e433a407761f" d="m56.33,13.21c-.11.69-.18,1.39-.18,2.11h13.5l-13.32-2.11Z"/>
        <path class="uuid-dbd79df3-9e5c-48b7-878d-e433a407761f" d="m69.65,15.32h0s12.02-6.12,12.02-6.12c-.32-.63-.69-1.23-1.11-1.8l-10.91,7.93h0Z"/>
        <path class="uuid-dbd79df3-9e5c-48b7-878d-e433a407761f" d="m82.49,11.15c-.22-.68-.5-1.33-.82-1.95l-12.02,6.12,12.84-4.17Z"/>
        <path class="uuid-dbd79df3-9e5c-48b7-878d-e433a407761f" d="m69.65,15.32h0l13.32-2.11c-.11-.71-.27-1.4-.48-2.06l-12.84,4.17h0Z"/>
        <path class="uuid-dbd79df3-9e5c-48b7-878d-e433a407761f" d="m69.65,15.32h0s2.11-13.32,2.11-13.32c-.69-.11-1.39-.18-2.11-.18v13.5h0Z"/>
        <path class="uuid-dbd79df3-9e5c-48b7-878d-e433a407761f" d="m80.56,7.39c-.42-.57-.87-1.12-1.36-1.62l-9.55,9.55,10.91-7.93Z"/>
        <path class="uuid-dbd79df3-9e5c-48b7-878d-e433a407761f" d="m69.65,15.32h0s6.12-12.02,6.12-12.02c-.63-.32-1.28-.6-1.95-.82l-4.17,12.84h0Z"/>
        <path class="uuid-dbd79df3-9e5c-48b7-878d-e433a407761f" d="m73.82,2.48c-.67-.22-1.36-.37-2.06-.48l-2.11,13.32,4.17-12.84Z"/>
        <path class="uuid-dbd79df3-9e5c-48b7-878d-e433a407761f" d="m77.58,4.41c-.57-.41-1.17-.79-1.8-1.11l-6.12,12.02,7.93-10.91Z"/>
        <path class="uuid-dbd79df3-9e5c-48b7-878d-e433a407761f" d="m69.65,15.32h0s9.55-9.55,9.55-9.55c-.5-.5-1.05-.95-1.62-1.36l-7.93,10.91h0Z"/>
        <path class="uuid-dbd79df3-9e5c-48b7-878d-e433a407761f" d="m69.65,15.32h0s-4.17,12.84-4.17,12.84c.67.22,1.36.37,2.06.48l2.11-13.32h0Z"/>
        <path class="uuid-dbd79df3-9e5c-48b7-878d-e433a407761f" d="m77.58,26.23c.57-.42,1.12-.87,1.62-1.36l-9.55-9.55,7.93,10.91Z"/>
        <path class="uuid-dbd79df3-9e5c-48b7-878d-e433a407761f" d="m69.65,15.32h0s4.17,12.84,4.17,12.84c.68-.22,1.33-.5,1.95-.82l-6.12-12.02h0Z"/>
        <path class="uuid-dbd79df3-9e5c-48b7-878d-e433a407761f" d="m69.65,15.32h0v13.5c.72,0,1.42-.07,2.11-.18l-2.11-13.32h0Z"/>
        <path class="uuid-dbd79df3-9e5c-48b7-878d-e433a407761f" d="m71.76,28.64c.71-.11,1.4-.27,2.06-.48l-4.17-12.84,2.11,13.32Z"/>
        <path class="uuid-dbd79df3-9e5c-48b7-878d-e433a407761f" d="m69.65,15.32l6.12,12.02c.63-.32,1.23-.69,1.8-1.11l-7.93-10.91h0Z"/>
        <path class="uuid-dbd79df3-9e5c-48b7-878d-e433a407761f" d="m69.65,15.32h0l12.02,6.12c.32-.63.6-1.28.82-1.95l-12.84-4.17h0Z"/>
        <path class="uuid-dbd79df3-9e5c-48b7-878d-e433a407761f" d="m79.2,24.86c.5-.5.95-1.05,1.36-1.62l-10.91-7.93,9.55,9.55Z"/>
        <path class="uuid-dbd79df3-9e5c-48b7-878d-e433a407761f" d="m69.65,15.32l12.84,4.17c.22-.67.37-1.36.48-2.06l-13.32-2.11Z"/>
        <path class="uuid-dbd79df3-9e5c-48b7-878d-e433a407761f" d="m69.65,15.32l10.91,7.93c.41-.57.79-1.17,1.11-1.8l-12.02-6.12h0Z"/>
        <path class="uuid-dbd79df3-9e5c-48b7-878d-e433a407761f" d="m57.63,21.44c.32.63.69,1.23,1.11,1.8l10.91-7.93-12.02,6.12Z"/>
        <path class="uuid-dbd79df3-9e5c-48b7-878d-e433a407761f" d="m69.65,15.32h-13.5c0,.72.07,1.42.18,2.11l13.32-2.11h0Z"/>
        <path class="uuid-dbd79df3-9e5c-48b7-878d-e433a407761f" d="m69.65,15.32h0l-12.84,4.17c.22.68.5,1.33.82,1.95l12.02-6.12h0Z"/>
        <path class="uuid-dbd79df3-9e5c-48b7-878d-e433a407761f" d="m69.65,15.32h0l-10.91,7.93c.42.57.87,1.12,1.36,1.62l9.55-9.55h0Z"/>
        <path class="uuid-dbd79df3-9e5c-48b7-878d-e433a407761f" d="m56.33,17.43c.11.71.27,1.4.48,2.06l12.84-4.17-13.32,2.11Z"/>
        <path class="uuid-dbd79df3-9e5c-48b7-878d-e433a407761f" d="m69.65,15.32h0s-7.93,10.91-7.93,10.91c.57.41,1.17.79,1.8,1.11l6.12-12.02h0Z"/>
        <path class="uuid-dbd79df3-9e5c-48b7-878d-e433a407761f" d="m63.53,27.34c.63.32,1.28.6,1.95.82l4.17-12.84-6.12,12.02Z"/>
        <path class="uuid-dbd79df3-9e5c-48b7-878d-e433a407761f" d="m83.15,15.32c0-.72-.07-1.42-.18-2.11l-13.32,2.11h13.5Z"/>
        <path class="uuid-dbd79df3-9e5c-48b7-878d-e433a407761f" d="m60.11,24.86c.5.5,1.05.95,1.62,1.36l7.93-10.91-9.55,9.55Z"/>
        <path class="uuid-dbd79df3-9e5c-48b7-878d-e433a407761f" d="m67.54,28.64c.69.11,1.39.18,2.11.18v-13.5l-2.11,13.32Z"/>
        <polygon class="uuid-dbd79df3-9e5c-48b7-878d-e433a407761f" points="69.65 15.32 69.65 15.32 69.65 15.32 69.65 15.32 69.65 15.32 69.65 15.32"/>
        <polygon class="uuid-dbd79df3-9e5c-48b7-878d-e433a407761f" points="69.65 15.32 69.65 15.32 69.65 15.32 69.65 15.32 69.65 15.32 69.65 15.32"/>
        <rect class="uuid-dbd79df3-9e5c-48b7-878d-e433a407761f" x="69.65" y="15.32" width="0" height="0" transform="translate(.5 32.77) rotate(-26.57)"/>
        <polygon class="uuid-dbd79df3-9e5c-48b7-878d-e433a407761f" points="69.65 15.32 69.65 15.32 69.65 15.32 69.65 15.32 69.65 15.32 69.65 15.32"/>
        <polygon class="uuid-dbd79df3-9e5c-48b7-878d-e433a407761f" points="69.65 15.32 69.65 15.32 69.65 15.32 69.65 15.32"/>
        <polygon class="uuid-dbd79df3-9e5c-48b7-878d-e433a407761f" points="69.65 15.32 69.65 15.32 69.65 15.32 69.65 15.32"/>
        <rect class="uuid-dbd79df3-9e5c-48b7-878d-e433a407761f" x="69.65" y="15.32" width="0" height="0" transform="translate(.5 32.77) rotate(-26.57)"/>
        <rect class="uuid-dbd79df3-9e5c-48b7-878d-e433a407761f" x="69.65" y="15.32" width="0" height="0"/>
        <polygon class="uuid-dbd79df3-9e5c-48b7-878d-e433a407761f" points="69.65 15.32 69.65 15.32 69.65 15.32 69.65 15.32"/>
        <path class="uuid-dbd79df3-9e5c-48b7-878d-e433a407761f" d="m69.65,15.32h0s13.32,2.11,13.32,2.11c.11-.69.18-1.39.18-2.11h-13.5Z"/>
        <rect class="uuid-dbd79df3-9e5c-48b7-878d-e433a407761f" x="69.65" y="15.32" width="0" height="0" transform="translate(24.8 70.77) rotate(-63.43)"/>
      </g>
      <text class="uuid-aadbf3f7-8e50-43ca-9a3c-51fa237e4bdf" transform="translate(9.86 11.38) scale(1.49 1)"><tspan x="0" y="0">R</tspan><tspan class="uuid-65f3fb05-17f4-4e81-acde-548c35304e28" x="6.81" y="0">O</tspan><tspan x="14.79" y="0">Y</tspan><tspan x="-6.61" y="11.53">A</tspan><tspan class="uuid-07bbfe59-38ab-4147-8a4f-506c41d0568c" x=".34" y="11.53">L</tspan><tspan class="uuid-10da7415-82d7-4985-ad70-ed9f4381ac5b" x="6.17" y="11.53">P</tspan><tspan class="uuid-e2ff344a-e207-4f33-9655-d75f4bc74f7d" x="12.76" y="11.53">H</tspan><tspan class="uuid-379338aa-93a3-4ea1-b442-918b111831a8" x="20.64" y="11.53">A</tspan></text>
      <text class="uuid-1eb64408-43dd-49ec-81a6-7b77072c8f00" transform="translate(.42 32.48) scale(1.19 1)"><tspan x="0" y="0">ilumi</tspan><tspan class="uuid-c0fe3701-b7f4-4371-8d68-9429bb02dab3" x="11.58" y="0">n</tspan><tspan x="14.7" y="0">a </tspan><tspan class="uuid-e828393b-ef55-44f3-87fa-d9a39cce9ec4" x="19.13" y="0">e</tspan><tspan x="22.04" y="0">l p</tspan><tspan class="uuid-9fb5cc6b-f98a-42cb-b933-0adda31f0bbe" x="27.95" y="0">r</tspan><tspan class="uuid-233d1fa5-dca1-4afa-b699-815efc60eb40" x="29.77" y="0">o</tspan><tspan class="uuid-5d3afaf7-40a3-4f2f-8dc6-62f4d7cc37c8" x="32.86" y="0">g</tspan><tspan class="uuid-04ba88fc-084f-438b-a62b-4a6f776ab961" x="36.01" y="0">r</tspan><tspan class="uuid-24e518f7-5aaf-4c06-8daa-f2f55545aa56" x="37.83" y="0">e</tspan><tspan x="40.79" y="0">so</tspan></text>
      <rect class="uuid-c30b9441-a270-4beb-87fb-0d0c9d18bb41" x="53.09" y=".05" width="1.06" height="27.83"/>
      <g>
        <path class="uuid-e2dd4cd2-3659-4826-8d21-fdad4387738b" d="m69.37,9.82l-.06-.73c-.36-.19-.73-.34-1.12-.46l.45,1.88c.23-.25.47-.47.73-.68Z"/>
        <path class="uuid-e2dd4cd2-3659-4826-8d21-fdad4387738b" d="m68.65,10.5l-.45-1.88c-.41-.13-.84-.21-1.27-.26l1.17,2.82c.17-.24.36-.47.56-.69Z"/>
        <path class="uuid-e2dd4cd2-3659-4826-8d21-fdad4387738b" d="m69.9,9.43c-.19-.12-.38-.24-.58-.35l.06.73c.17-.14.35-.27.53-.39Z"/>
        <path class="uuid-e2dd4cd2-3659-4826-8d21-fdad4387738b" d="m68.09,11.19l-1.17-2.82c-.21-.02-.42-.03-.64-.03-.25,0-.5.02-.74.04l2.13,3.47c.13-.23.27-.45.42-.66Z"/>
        <path class="uuid-e2dd4cd2-3659-4826-8d21-fdad4387738b" d="m67.13,17.62l-4.36,3.72c.42.27.87.49,1.34.65l3.24-3.79c-.08-.19-.16-.39-.22-.59Z"/>
        <path class="uuid-e2dd4cd2-3659-4826-8d21-fdad4387738b" d="m67.35,18.21l-3.24,3.79c.45.16.92.27,1.41.33l2.14-3.49c-.11-.2-.22-.41-.31-.63Z"/>
        <path class="uuid-e2dd4cd2-3659-4826-8d21-fdad4387738b" d="m68.08,19.5l-1.18,2.84c.44-.04.87-.13,1.28-.25l.45-1.89c-.2-.22-.39-.45-.56-.69Z"/>
        <path class="uuid-e2dd4cd2-3659-4826-8d21-fdad4387738b" d="m67.66,18.83l-2.14,3.49c.25.03.5.05.76.05.21,0,.42-.01.62-.03l1.18-2.84c-.15-.21-.29-.43-.42-.67Z"/>
        <path class="uuid-e2dd4cd2-3659-4826-8d21-fdad4387738b" d="m66.8,14.61l-6.86-1.65c-.17.5-.3,1.02-.36,1.56l7.2.57c0-.16,0-.32.03-.48Z"/>
        <path class="uuid-e2dd4cd2-3659-4826-8d21-fdad4387738b" d="m66.77,15.35c0-.09,0-.17.01-.26l-7.2-.57c-.03.27-.05.54-.05.82s.02.53.05.79l7.2-.57c0-.07-.01-.15-.01-.22Z"/>
        <path class="uuid-e2dd4cd2-3659-4826-8d21-fdad4387738b" d="m66.8,16.06l-6.87,1.65c.17.51.4.99.68,1.44l6.26-2.59c-.03-.16-.06-.33-.07-.49Z"/>
        <path class="uuid-e2dd4cd2-3659-4826-8d21-fdad4387738b" d="m68.64,20.2l-.45,1.89c.39-.12.77-.28,1.13-.46l.06-.74c-.26-.21-.5-.44-.73-.69Z"/>
        <path class="uuid-e2dd4cd2-3659-4826-8d21-fdad4387738b" d="m66.98,17.07l-5.4,3.31c.36.37.77.69,1.2.96l4.36-3.72c-.06-.18-.11-.36-.15-.55Z"/>
        <path class="uuid-e2dd4cd2-3659-4826-8d21-fdad4387738b" d="m66.78,15.57l-7.2.57c.06.54.18,1.07.35,1.57l6.87-1.65c-.02-.16-.02-.32-.02-.48Z"/>
        <path class="uuid-e2dd4cd2-3659-4826-8d21-fdad4387738b" d="m66.87,16.55l-6.26,2.59c.28.45.6.86.97,1.23l5.4-3.31c-.04-.17-.08-.34-.11-.52Z"/>
        <path class="uuid-e2dd4cd2-3659-4826-8d21-fdad4387738b" d="m66.99,13.61l-5.39-3.3c-.37.37-.69.78-.97,1.23l6.25,2.59c.03-.17.07-.35.11-.52Z"/>
        <path class="uuid-e2dd4cd2-3659-4826-8d21-fdad4387738b" d="m67.14,13.06l-4.34-3.71c-.43.27-.84.59-1.2.96l5.39,3.3c.05-.19.1-.37.16-.55Z"/>
        <path class="uuid-e2dd4cd2-3659-4826-8d21-fdad4387738b" d="m69.31,21.62c.2-.11.4-.22.59-.35-.18-.12-.36-.25-.53-.39l-.06.74Z"/>
        <path class="uuid-e2dd4cd2-3659-4826-8d21-fdad4387738b" d="m67.36,12.47l-3.22-3.77c-.47.16-.92.38-1.34.65l4.34,3.71c.07-.2.14-.39.22-.58Z"/>
        <path class="uuid-e2dd4cd2-3659-4826-8d21-fdad4387738b" d="m66.88,14.12l-6.25-2.59c-.28.45-.51.93-.68,1.43l6.86,1.65c.02-.17.04-.33.07-.49Z"/>
        <path class="uuid-e2dd4cd2-3659-4826-8d21-fdad4387738b" d="m67.67,11.85l-2.13-3.47c-.49.05-.95.17-1.4.32l3.22,3.77c.09-.21.2-.42.31-.62Z"/>
        <path class="uuid-e2dd4cd2-3659-4826-8d21-fdad4387738b" d="m69.81,15.33l10.05,2.41c.18-.51.3-1.04.36-1.59l-10.41-.82Z"/>
        <rect class="uuid-e2dd4cd2-3659-4826-8d21-fdad4387738b" x="69.81" y="15.33" width="0" height="0"/>
        <rect class="uuid-e2dd4cd2-3659-4826-8d21-fdad4387738b" x="69.81" y="15.33" width="0" transform="translate(9.6 53.85) rotate(-45)"/>
        <rect class="uuid-e2dd4cd2-3659-4826-8d21-fdad4387738b" x="69.81" y="15.33" width="0" height="0" transform="translate(24.87 70.91) rotate(-63.43)"/>
        <rect class="uuid-e2dd4cd2-3659-4826-8d21-fdad4387738b" x="69.81" y="15.33" width="0" height="0" transform="translate(9.6 53.85) rotate(-45)"/>
        <polygon class="uuid-e2dd4cd2-3659-4826-8d21-fdad4387738b" points="69.81 15.33 69.81 15.33 69.81 15.33 69.81 15.33"/>
        <polygon class="uuid-e2dd4cd2-3659-4826-8d21-fdad4387738b" points="69.81 15.33 69.81 15.33 69.81 15.33 69.81 15.33"/>
        <rect class="uuid-e2dd4cd2-3659-4826-8d21-fdad4387738b" x="69.81" y="15.33" width="0" height="0" transform="translate(33.18 76.71) rotate(-71.57)"/>
        <path class="uuid-e2dd4cd2-3659-4826-8d21-fdad4387738b" d="m69.81,15.33l-3.03.24c0,.16,0,.32.02.48l3.01-.72h0Z"/>
        <path class="uuid-e2dd4cd2-3659-4826-8d21-fdad4387738b" d="m67.66,18.83c.13.23.27.45.42.67l1.73-4.17-2.14,3.5Z"/>
        <rect class="uuid-e2dd4cd2-3659-4826-8d21-fdad4387738b" x="69.81" y="15.33" width="0" height="0" transform="translate(.51 32.84) rotate(-26.57)"/>
        <path class="uuid-e2dd4cd2-3659-4826-8d21-fdad4387738b" d="m68.64,20.2c.23.25.47.48.73.69l.44-5.55h0l-1.17,4.86Z"/>
        <path class="uuid-e2dd4cd2-3659-4826-8d21-fdad4387738b" d="m69.81,15.33h0s-1.73,4.17-1.73,4.17c.17.24.36.48.56.69l1.17-4.86h0Z"/>
        <path class="uuid-e2dd4cd2-3659-4826-8d21-fdad4387738b" d="m69.81,15.33l1.6,6.68c.41.14.84.24,1.29.3l-2.89-6.98Z"/>
        <path class="uuid-e2dd4cd2-3659-4826-8d21-fdad4387738b" d="m69.81,15.33h0s2.89,6.98,2.89,6.98c.27.03.54.06.82.06.2,0,.39-.01.58-.03l-4.29-7Z"/>
        <path class="uuid-e2dd4cd2-3659-4826-8d21-fdad4387738b" d="m69.81,15.33h0s.49,6.18.49,6.18c.35.2.73.36,1.12.5l-1.6-6.68Z"/>
        <path class="uuid-e2dd4cd2-3659-4826-8d21-fdad4387738b" d="m69.81,15.33h0l-.44,5.55c.17.14.35.27.53.39.13.09.26.17.39.25l-.49-6.18Z"/>
        <path class="uuid-e2dd4cd2-3659-4826-8d21-fdad4387738b" d="m69.81,15.33h0l.48-6.15c-.13.08-.26.16-.39.25-.18.12-.36.25-.53.39l.43,5.51Z"/>
        <path class="uuid-e2dd4cd2-3659-4826-8d21-fdad4387738b" d="m69.81,15.33l9.35,3.87c.29-.45.52-.94.7-1.46l-10.05-2.41Z"/>
        <path class="uuid-e2dd4cd2-3659-4826-8d21-fdad4387738b" d="m69.81,15.33h0s8.34,5.11,8.34,5.11c.38-.37.72-.79,1-1.24l-9.35-3.87Z"/>
        <path class="uuid-e2dd4cd2-3659-4826-8d21-fdad4387738b" d="m69.81,15.33h0s4.29,7,4.29,7c.5-.04.98-.14,1.44-.29l-5.73-6.71Z"/>
        <path class="uuid-e2dd4cd2-3659-4826-8d21-fdad4387738b" d="m69.81,15.33l7.11,6.07c.45-.27.86-.59,1.23-.96l-8.34-5.11Z"/>
        <path class="uuid-e2dd4cd2-3659-4826-8d21-fdad4387738b" d="m69.81,15.33h0l5.73,6.71c.49-.16.94-.38,1.38-.64l-7.11-6.07Z"/>
        <path class="uuid-e2dd4cd2-3659-4826-8d21-fdad4387738b" d="m69.81,15.33h0s1.59-6.64,1.59-6.64c-.39.13-.76.3-1.11.5l-.48,6.15Z"/>
        <path class="uuid-e2dd4cd2-3659-4826-8d21-fdad4387738b" d="m69.81,15.33l2.88-6.94c-.44.06-.87.16-1.28.3l-1.59,6.64Z"/>
        <path class="uuid-e2dd4cd2-3659-4826-8d21-fdad4387738b" d="m69.81,15.33l10.41.82c.03-.26.05-.53.05-.8s-.02-.56-.05-.84l-10.41.82Z"/>
        <polygon class="uuid-e2dd4cd2-3659-4826-8d21-fdad4387738b" points="69.81 15.33 69.81 15.33 69.81 15.33 69.81 15.33"/>
        <path class="uuid-e2dd4cd2-3659-4826-8d21-fdad4387738b" d="m69.81,15.33l10.04-2.41c-.18-.52-.42-1.01-.71-1.46l-9.33,3.87Z"/>
        <polygon class="uuid-e2dd4cd2-3659-4826-8d21-fdad4387738b" points="69.81 15.33 69.81 15.33 69.81 15.33 69.81 15.33"/>
        <path class="uuid-e2dd4cd2-3659-4826-8d21-fdad4387738b" d="m69.81,15.33l10.41-.82c-.06-.55-.19-1.08-.37-1.59l-10.04,2.41Z"/>
        <path class="uuid-e2dd4cd2-3659-4826-8d21-fdad4387738b" d="m69.81,15.33h0s5.71-6.69,5.71-6.69c-.46-.15-.94-.24-1.44-.28l-4.27,6.97Z"/>
        <path class="uuid-e2dd4cd2-3659-4826-8d21-fdad4387738b" d="m69.81,15.33h0s9.33-3.86,9.33-3.86c-.29-.45-.63-.86-1.01-1.23l-8.32,5.1Z"/>
        <path class="uuid-e2dd4cd2-3659-4826-8d21-fdad4387738b" d="m69.81,15.33h0s4.27-6.97,4.27-6.97c-.19-.02-.37-.03-.56-.03-.28,0-.56.02-.83.06l-2.88,6.94Z"/>
        <path class="uuid-e2dd4cd2-3659-4826-8d21-fdad4387738b" d="m69.81,15.33l8.32-5.1c-.37-.36-.79-.68-1.23-.95l-7.09,6.05Z"/>
        <path class="uuid-e2dd4cd2-3659-4826-8d21-fdad4387738b" d="m69.81,15.33h0l7.09-6.05c-.43-.26-.89-.48-1.38-.63l-5.71,6.69Z"/>
        <path class="uuid-e2dd4cd2-3659-4826-8d21-fdad4387738b" d="m69.81,15.33l-.43-5.51c-.26.21-.5.44-.73.68l1.16,4.83h0Z"/>
        <path class="uuid-e2dd4cd2-3659-4826-8d21-fdad4387738b" d="m69.81,15.33h0s-1.16-4.83-1.16-4.83c-.2.22-.38.45-.56.69l1.72,4.14h0Z"/>
        <path class="uuid-e2dd4cd2-3659-4826-8d21-fdad4387738b" d="m69.81,15.33l-2.44-2.86c-.08.19-.16.39-.22.58l2.66,2.28h0Z"/>
        <path class="uuid-e2dd4cd2-3659-4826-8d21-fdad4387738b" d="m69.81,15.33h0s-2.66-2.28-2.66-2.28c-.06.18-.11.36-.16.55l2.82,1.73h0Z"/>
        <path class="uuid-e2dd4cd2-3659-4826-8d21-fdad4387738b" d="m69.81,15.33l-2.13-3.48c-.11.2-.22.41-.31.62l2.44,2.86h0Z"/>
        <path class="uuid-e2dd4cd2-3659-4826-8d21-fdad4387738b" d="m68.09,11.19c-.15.21-.29.43-.42.66l2.13,3.48-1.72-4.14Z"/>
        <rect class="uuid-e2dd4cd2-3659-4826-8d21-fdad4387738b" x="69.81" y="15.33" width="0" height="0" transform="translate(9.6 53.85) rotate(-45)"/>
        <rect class="uuid-e2dd4cd2-3659-4826-8d21-fdad4387738b" x="69.81" y="15.33" height="0" transform="translate(9.6 53.85) rotate(-45)"/>
        <rect class="uuid-e2dd4cd2-3659-4826-8d21-fdad4387738b" x="69.81" y="15.33" width="0" height="0" transform="translate(9.6 53.85) rotate(-45)"/>
        <path class="uuid-e2dd4cd2-3659-4826-8d21-fdad4387738b" d="m66.99,13.61c-.04.17-.08.34-.11.52l2.93,1.21-2.82-1.73Z"/>
        <rect class="uuid-e2dd4cd2-3659-4826-8d21-fdad4387738b" x="69.81" y="15.33" width="0" height="0" transform="translate(3.22 41.3) rotate(-33.69)"/>
        <path class="uuid-e2dd4cd2-3659-4826-8d21-fdad4387738b" d="m69.81,15.33l-3-.72c-.02.16-.02.32-.03.48l3.03.24h0Z"/>
        <path class="uuid-e2dd4cd2-3659-4826-8d21-fdad4387738b" d="m69.81,15.33h0s-2.83,1.73-2.83,1.73c.05.19.1.37.15.55l2.67-2.28h0Z"/>
        <path class="uuid-e2dd4cd2-3659-4826-8d21-fdad4387738b" d="m66.87,16.55c.03.18.07.35.11.52l2.83-1.73-2.93,1.22Z"/>
        <path class="uuid-e2dd4cd2-3659-4826-8d21-fdad4387738b" d="m69.81,15.33l-3.01.72c.02.17.04.33.07.49l2.93-1.22h0Z"/>
        <path class="uuid-e2dd4cd2-3659-4826-8d21-fdad4387738b" d="m69.81,15.33h0l-3.03-.24c0,.09-.01.17-.01.26,0,.07,0,.15.01.22l3.03-.24h0Z"/>
        <path class="uuid-e2dd4cd2-3659-4826-8d21-fdad4387738b" d="m69.81,15.33l-2.67,2.28c.07.2.14.4.22.59l2.45-2.87h0Z"/>
        <path class="uuid-e2dd4cd2-3659-4826-8d21-fdad4387738b" d="m69.81,15.33l-2.93-1.21c-.03.16-.06.33-.07.49l3,.72h0Z"/>
        <path class="uuid-e2dd4cd2-3659-4826-8d21-fdad4387738b" d="m69.81,15.33l-2.45,2.87c.09.22.2.42.31.63l2.14-3.5h0Z"/>
        <line class="uuid-17d4c9dd-4472-4847-81f1-2ad63693d182" x1="79.84" y1="12.92" x2="69.81" y2="15.33"/>
        <line class="uuid-17d4c9dd-4472-4847-81f1-2ad63693d182" x1="66.8" y1="16.06" x2="59.93" y2="17.71"/>
        <line class="uuid-17d4c9dd-4472-4847-81f1-2ad63693d182" x1="69.81" y1="15.33" x2="66.8" y2="16.06"/>
        <line class="uuid-17d4c9dd-4472-4847-81f1-2ad63693d182" x1="60.61" y1="19.14" x2="66.87" y2="16.55"/>
        <line class="uuid-a862f9c2-0b75-436f-9da1-d755034748ba" x1="69.81" y1="15.33" x2="69.81" y2="15.33"/>
        <line class="uuid-17d4c9dd-4472-4847-81f1-2ad63693d182" x1="69.81" y1="15.33" x2="66.87" y2="16.55"/>
        <line class="uuid-17d4c9dd-4472-4847-81f1-2ad63693d182" x1="79.14" y1="11.47" x2="69.81" y2="15.33"/>
        <line class="uuid-a862f9c2-0b75-436f-9da1-d755034748ba" x1="69.81" y1="15.33" x2="69.81" y2="15.33"/>
        <line class="uuid-17d4c9dd-4472-4847-81f1-2ad63693d182" x1="61.58" y1="20.38" x2="66.98" y2="17.07"/>
        <line class="uuid-17d4c9dd-4472-4847-81f1-2ad63693d182" x1="78.13" y1="10.24" x2="69.81" y2="15.33"/>
        <line class="uuid-a862f9c2-0b75-436f-9da1-d755034748ba" x1="69.81" y1="15.33" x2="69.81" y2="15.33"/>
        <line class="uuid-17d4c9dd-4472-4847-81f1-2ad63693d182" x1="66.98" y1="17.07" x2="69.81" y2="15.33"/>
        <line class="uuid-a862f9c2-0b75-436f-9da1-d755034748ba" x1="69.81" y1="15.33" x2="69.81" y2="15.33"/>
        <line class="uuid-17d4c9dd-4472-4847-81f1-2ad63693d182" x1="62.78" y1="21.34" x2="67.13" y2="17.62"/>
        <line class="uuid-17d4c9dd-4472-4847-81f1-2ad63693d182" x1="67.13" y1="17.62" x2="69.81" y2="15.33"/>
        <line class="uuid-a862f9c2-0b75-436f-9da1-d755034748ba" x1="69.81" y1="15.33" x2="69.81" y2="15.33"/>
        <line class="uuid-17d4c9dd-4472-4847-81f1-2ad63693d182" x1="76.89" y1="9.28" x2="69.81" y2="15.33"/>
        <line class="uuid-17d4c9dd-4472-4847-81f1-2ad63693d182" x1="75.52" y1="8.65" x2="69.81" y2="15.33"/>
        <line class="uuid-a862f9c2-0b75-436f-9da1-d755034748ba" x1="69.81" y1="15.33" x2="69.81" y2="15.33"/>
        <line class="uuid-a862f9c2-0b75-436f-9da1-d755034748ba" x1="69.81" y1="15.33" x2="69.81" y2="15.33"/>
        <line class="uuid-17d4c9dd-4472-4847-81f1-2ad63693d182" x1="64.12" y1="21.99" x2="67.35" y2="18.21"/>
        <line class="uuid-17d4c9dd-4472-4847-81f1-2ad63693d182" x1="67.35" y1="18.21" x2="69.81" y2="15.33"/>
        <line class="uuid-17d4c9dd-4472-4847-81f1-2ad63693d182" x1="74.08" y1="8.36" x2="69.81" y2="15.33"/>
        <line class="uuid-17d4c9dd-4472-4847-81f1-2ad63693d182" x1="69.81" y1="15.33" x2="67.66" y2="18.83"/>
        <line class="uuid-17d4c9dd-4472-4847-81f1-2ad63693d182" x1="65.52" y1="22.32" x2="67.66" y2="18.83"/>
        <line class="uuid-a862f9c2-0b75-436f-9da1-d755034748ba" x1="69.81" y1="15.33" x2="69.81" y2="15.33"/>
        <line class="uuid-17d4c9dd-4472-4847-81f1-2ad63693d182" x1="66.91" y1="22.34" x2="68.08" y2="19.5"/>
        <line class="uuid-a862f9c2-0b75-436f-9da1-d755034748ba" x1="69.81" y1="15.33" x2="69.81" y2="15.33"/>
        <line class="uuid-17d4c9dd-4472-4847-81f1-2ad63693d182" x1="68.08" y1="19.5" x2="69.81" y2="15.33"/>
        <line class="uuid-17d4c9dd-4472-4847-81f1-2ad63693d182" x1="72.68" y1="8.39" x2="69.81" y2="15.33"/>
        <line class="uuid-a862f9c2-0b75-436f-9da1-d755034748ba" x1="69.81" y1="15.33" x2="69.81" y2="15.33"/>
        <line class="uuid-a862f9c2-0b75-436f-9da1-d755034748ba" x1="69.81" y1="15.33" x2="69.81" y2="15.33"/>
        <line class="uuid-17d4c9dd-4472-4847-81f1-2ad63693d182" x1="71.4" y1="8.69" x2="69.81" y2="15.33"/>
        <line class="uuid-17d4c9dd-4472-4847-81f1-2ad63693d182" x1="68.64" y1="20.2" x2="69.81" y2="15.33"/>
        <line class="uuid-17d4c9dd-4472-4847-81f1-2ad63693d182" x1="68.19" y1="22.08" x2="68.64" y2="20.2"/>
        <line class="uuid-17d4c9dd-4472-4847-81f1-2ad63693d182" x1="70.29" y1="9.19" x2="69.81" y2="15.33"/>
        <line class="uuid-17d4c9dd-4472-4847-81f1-2ad63693d182" x1="69.81" y1="15.33" x2="69.37" y2="20.88"/>
        <line class="uuid-17d4c9dd-4472-4847-81f1-2ad63693d182" x1="69.31" y1="21.62" x2="69.37" y2="20.88"/>
        <line class="uuid-17d4c9dd-4472-4847-81f1-2ad63693d182" x1="69.37" y1="9.82" x2="69.81" y2="15.33"/>
        <line class="uuid-17d4c9dd-4472-4847-81f1-2ad63693d182" x1="70.29" y1="21.52" x2="69.81" y2="15.33"/>
        <line class="uuid-17d4c9dd-4472-4847-81f1-2ad63693d182" x1="69.32" y1="9.09" x2="69.37" y2="9.82"/>
        <line class="uuid-17d4c9dd-4472-4847-81f1-2ad63693d182" x1="69.81" y1="15.33" x2="68.65" y2="10.5"/>
        <line class="uuid-17d4c9dd-4472-4847-81f1-2ad63693d182" x1="68.2" y1="8.62" x2="68.65" y2="10.5"/>
        <line class="uuid-a862f9c2-0b75-436f-9da1-d755034748ba" x1="69.81" y1="15.33" x2="69.81" y2="15.33"/>
        <line class="uuid-17d4c9dd-4472-4847-81f1-2ad63693d182" x1="71.41" y1="22.02" x2="69.81" y2="15.33"/>
        <line class="uuid-a862f9c2-0b75-436f-9da1-d755034748ba" x1="69.81" y1="15.33" x2="69.81" y2="15.33"/>
        <line class="uuid-a862f9c2-0b75-436f-9da1-d755034748ba" x1="69.81" y1="15.33" x2="69.81" y2="15.33"/>
        <line class="uuid-17d4c9dd-4472-4847-81f1-2ad63693d182" x1="72.7" y1="22.31" x2="69.81" y2="15.33"/>
        <line class="uuid-17d4c9dd-4472-4847-81f1-2ad63693d182" x1="69.81" y1="15.33" x2="68.09" y2="11.19"/>
        <line class="uuid-17d4c9dd-4472-4847-81f1-2ad63693d182" x1="66.92" y1="8.37" x2="68.09" y2="11.19"/>
        <line class="uuid-a862f9c2-0b75-436f-9da1-d755034748ba" x1="69.81" y1="15.33" x2="69.81" y2="15.33"/>
        <line class="uuid-17d4c9dd-4472-4847-81f1-2ad63693d182" x1="65.54" y1="8.38" x2="67.67" y2="11.85"/>
        <line class="uuid-17d4c9dd-4472-4847-81f1-2ad63693d182" x1="67.67" y1="11.85" x2="69.81" y2="15.33"/>
        <line class="uuid-17d4c9dd-4472-4847-81f1-2ad63693d182" x1="74.1" y1="22.34" x2="69.81" y2="15.33"/>
        <line class="uuid-17d4c9dd-4472-4847-81f1-2ad63693d182" x1="67.36" y1="12.47" x2="69.81" y2="15.33"/>
        <line class="uuid-17d4c9dd-4472-4847-81f1-2ad63693d182" x1="64.14" y1="8.7" x2="67.36" y2="12.47"/>
        <line class="uuid-a862f9c2-0b75-436f-9da1-d755034748ba" x1="69.81" y1="15.33" x2="69.81" y2="15.33"/>
        <line class="uuid-a862f9c2-0b75-436f-9da1-d755034748ba" x1="69.81" y1="15.33" x2="69.81" y2="15.33"/>
        <line class="uuid-17d4c9dd-4472-4847-81f1-2ad63693d182" x1="75.54" y1="22.05" x2="69.81" y2="15.33"/>
        <line class="uuid-a862f9c2-0b75-436f-9da1-d755034748ba" x1="69.81" y1="15.33" x2="69.81" y2="15.33"/>
        <line class="uuid-a862f9c2-0b75-436f-9da1-d755034748ba" x1="69.81" y1="15.33" x2="69.81" y2="15.33"/>
        <line class="uuid-17d4c9dd-4472-4847-81f1-2ad63693d182" x1="62.8" y1="9.35" x2="67.14" y2="13.06"/>
        <line class="uuid-17d4c9dd-4472-4847-81f1-2ad63693d182" x1="67.14" y1="13.06" x2="69.81" y2="15.33"/>
        <line class="uuid-17d4c9dd-4472-4847-81f1-2ad63693d182" x1="76.92" y1="21.41" x2="69.81" y2="15.33"/>
        <line class="uuid-71e3e00f-5498-4ed5-a144-a3e6db496b34" x1="69.81" y1="15.33" x2="66.99" y2="13.61"/>
        <line class="uuid-a862f9c2-0b75-436f-9da1-d755034748ba" x1="69.81" y1="15.33" x2="69.81" y2="15.33"/>
        <line class="uuid-17d4c9dd-4472-4847-81f1-2ad63693d182" x1="78.15" y1="20.45" x2="69.81" y2="15.33"/>
        <line class="uuid-71e3e00f-5498-4ed5-a144-a3e6db496b34" x1="61.6" y1="10.31" x2="66.99" y2="13.61"/>
        <line class="uuid-a862f9c2-0b75-436f-9da1-d755034748ba" x1="69.81" y1="15.33" x2="69.81" y2="15.33"/>
        <line class="uuid-17d4c9dd-4472-4847-81f1-2ad63693d182" x1="66.88" y1="14.12" x2="69.81" y2="15.33"/>
        <line class="uuid-17d4c9dd-4472-4847-81f1-2ad63693d182" x1="60.63" y1="11.53" x2="66.88" y2="14.12"/>
        <line class="uuid-17d4c9dd-4472-4847-81f1-2ad63693d182" x1="79.15" y1="19.21" x2="69.81" y2="15.33"/>
        <line class="uuid-a862f9c2-0b75-436f-9da1-d755034748ba" x1="69.81" y1="15.33" x2="69.81" y2="15.33"/>
        <line class="uuid-a862f9c2-0b75-436f-9da1-d755034748ba" x1="59.94" y1="12.97" x2="59.64" y2="12.89"/>
        <line class="uuid-17d4c9dd-4472-4847-81f1-2ad63693d182" x1="66.8" y1="14.61" x2="69.81" y2="15.33"/>
        <line class="uuid-17d4c9dd-4472-4847-81f1-2ad63693d182" x1="59.94" y1="12.97" x2="66.8" y2="14.61"/>
        <line class="uuid-17d4c9dd-4472-4847-81f1-2ad63693d182" x1="79.85" y1="17.75" x2="69.81" y2="15.33"/>
        <line class="uuid-17d4c9dd-4472-4847-81f1-2ad63693d182" x1="59.58" y1="14.53" x2="66.78" y2="15.1"/>
        <line class="uuid-a862f9c2-0b75-436f-9da1-d755034748ba" x1="80.23" y1="16.16" x2="80.22" y2="16.15"/>
        <line class="uuid-17d4c9dd-4472-4847-81f1-2ad63693d182" x1="66.78" y1="15.1" x2="69.81" y2="15.33"/>
        <line class="uuid-17d4c9dd-4472-4847-81f1-2ad63693d182" x1="80.22" y1="16.15" x2="69.81" y2="15.33"/>
        <line class="uuid-17d4c9dd-4472-4847-81f1-2ad63693d182" x1="66.78" y1="15.57" x2="59.58" y2="16.14"/>
        <line class="uuid-a862f9c2-0b75-436f-9da1-d755034748ba" x1="80.23" y1="14.51" x2="80.21" y2="14.52"/>
        <line class="uuid-17d4c9dd-4472-4847-81f1-2ad63693d182" x1="80.21" y1="14.52" x2="69.81" y2="15.33"/>
        <line class="uuid-17d4c9dd-4472-4847-81f1-2ad63693d182" x1="66.78" y1="15.57" x2="69.81" y2="15.33"/>
      </g>
      <circle class="uuid-cdfc001b-b9ad-4073-aa14-0b4e1e300f7f" cx="69.82" cy="15.32" r="2.5"/>
    </g>
  </g>
</svg>