<?xml version="1.0" standalone="no"?>
<!DOCTYPE svg PUBLIC "-//W3C//DTD SVG 20010904//EN"
 "http://www.w3.org/TR/2001/REC-SVG-20010904/DTD/svg10.dtd">
<svg version="1.0" xmlns="http://www.w3.org/2000/svg"
 width="199.000000pt" height="182.000000pt" viewBox="0 0 199.000000 182.000000"
 preserveAspectRatio="xMidYMid meet">
<metadata>
Created by potrace 1.10, written by Peter Selinger 2001-2011
</metadata>
<g transform="translate(0.000000,182.000000) scale(0.100000,-0.100000)"
fill="#000000" stroke="none">
<path d="M965 1580 c-71 -20 -175 -50 -230 -64 -55 -15 -115 -32 -132 -37
l-33 -11 0 -406 c0 -352 2 -412 16 -449 9 -24 19 -43 23 -43 3 0 15 21 25 48
17 41 219 455 414 852 37 74 69 138 70 142 6 13 -15 8 -153 -32z m64 -42 c0
-7 -11 -35 -24 -63 -13 -27 -21 -54 -18 -59 4 -5 0 -6 -7 -1 -10 6 -12 4 -7
-9 4 -9 3 -14 -2 -11 -5 3 -13 -5 -16 -17 -8 -24 -200 -414 -213 -432 -5 -6
-8 -18 -8 -26 1 -8 -7 -23 -17 -33 -10 -10 -15 -22 -12 -27 3 -4 1 -10 -3 -12
-13 -5 -62 -110 -56 -119 3 -5 0 -9 -6 -9 -6 0 -15 -10 -20 -22 -5 -15 -9 119
-9 354 -1 360 0 378 18 387 19 11 195 60 244 68 15 3 27 10 27 16 0 6 2 8 6 5
3 -3 26 0 52 7 61 17 72 18 71 3z"/>
<path d="M1285 985 c-28 -29 -35 -43 -35 -76 0 -90 89 -146 169 -105 57 30 77
96 47 155 -21 39 -58 61 -105 61 -33 0 -47 -7 -76 -35z m128 -6 c12 -15 37
-80 37 -96 -1 -22 -46 -57 -62 -47 -8 5 -9 1 -4 -12 4 -12 -3 -8 -19 11 -14
17 -22 22 -19 13 8 -23 -5 -22 -35 1 -30 23 -33 73 -8 111 14 21 24 25 61 25
25 -1 47 -3 49 -6z"/>
<path d="M1160 778 c-69 -61 -199 -143 -265 -168 -33 -12 -85 -23 -117 -24
-32 0 -58 -4 -58 -7 0 -12 58 -60 105 -85 59 -32 188 -44 274 -25 122 26 244
109 308 209 33 51 38 76 11 55 -23 -18 -63 -23 -104 -12 -44 12 -69 31 -93 70
l-17 27 -44 -40z m50 -44 c0 -8 4 -13 9 -9 5 3 12 1 16 -5 4 -6 11 -8 16 -4 5
3 8 0 7 -7 -2 -7 15 -18 37 -24 22 -7 40 -16 40 -21 0 -42 -144 -132 -243
-154 -68 -14 -214 -8 -220 10 -2 6 -12 10 -23 10 -12 0 -16 5 -13 15 4 8 10
13 15 10 4 -3 24 1 44 9 19 8 39 16 43 17 28 5 82 42 76 51 -4 7 -3 8 4 4 7
-4 33 8 59 26 64 44 71 50 96 74 24 23 37 22 37 -2z"/>
<path d="M160 206 l0 -66 45 0 c25 0 45 5 45 10 0 6 -15 10 -34 10 l-33 0 1
52 c1 33 -3 53 -11 55 -10 4 -13 -13 -13 -61z"/>
<path d="M270 205 l0 -65 50 0 c28 0 50 5 50 10 0 6 -18 10 -40 10 -29 0 -40
4 -40 15 0 10 11 15 35 15 19 0 35 5 35 10 0 6 -16 10 -36 10 -28 0 -35 3 -32
17 3 14 11 17 41 15 28 -3 37 0 37 12 0 12 -11 16 -50 16 l-50 0 0 -65z"/>
<path d="M419 243 c-36 -92 -39 -103 -24 -103 8 0 15 7 15 15 0 10 10 15 30
15 20 0 30 -5 30 -15 0 -8 7 -15 16 -15 17 0 14 14 -17 88 -21 49 -35 53 -50
15z m37 -50 c-2 -3 -11 -3 -19 -1 -11 2 -12 9 -5 28 l10 25 9 -24 c5 -13 7
-26 5 -28z"/>
<path d="M520 205 l0 -65 35 0 c36 0 75 28 75 53 -1 34 -15 57 -42 66 -63 22
-68 18 -68 -54z m78 3 c3 -28 -20 -53 -43 -44 -15 5 -22 66 -9 79 13 13 49
-11 52 -35z"/>
<path d="M650 205 l0 -65 50 0 c28 0 50 5 50 10 0 6 -18 10 -40 10 -29 0 -40
4 -40 15 0 10 11 15 35 15 19 0 35 5 35 10 0 6 -16 10 -36 10 -28 0 -35 3 -32
17 3 14 11 17 41 15 28 -3 37 0 37 12 0 12 -11 16 -50 16 l-50 0 0 -65z"/>
<path d="M770 206 c0 -49 3 -66 14 -66 9 0 12 8 8 25 -3 20 0 25 15 25 11 0
25 -11 31 -25 6 -14 18 -25 27 -25 19 0 19 9 -1 31 -15 17 -15 19 0 34 31 31
12 56 -48 62 l-46 6 0 -67z m71 34 c5 0 9 -7 9 -15 0 -10 -10 -15 -30 -15 -18
0 -30 5 -30 13 0 19 12 29 28 22 7 -3 18 -5 23 -5z"/>
<path d="M950 206 l0 -66 45 0 c25 0 45 5 45 10 0 6 -16 10 -36 10 l-36 0 4
52 c2 35 -1 53 -9 55 -10 4 -13 -13 -13 -61z"/>
<path d="M1060 206 l0 -66 50 0 c28 0 50 5 50 10 0 6 -18 10 -40 10 -29 0 -40
4 -40 15 0 10 11 15 35 15 19 0 35 5 35 10 0 6 -16 10 -36 10 -28 0 -35 4 -32
17 2 11 13 17 33 17 50 1 44 21 -7 24 l-48 3 0 -65z"/>
<path d="M1180 206 l0 -66 35 0 c60 0 95 58 62 104 -7 9 -32 20 -55 23 l-42 6
0 -67z m78 0 c4 -29 -10 -46 -39 -46 -11 0 -15 11 -16 41 -1 38 1 40 26 37 20
-2 27 -9 29 -32z"/>
<path d="M1377 263 c-13 -3 -17 -12 -15 -31 2 -20 11 -29 36 -36 17 -5 32 -15
32 -22 0 -17 -24 -18 -50 -2 -26 16 -40 0 -16 -18 25 -18 57 -18 80 -1 29 21
16 50 -27 60 -20 5 -37 13 -37 17 0 16 20 21 40 10 25 -13 42 -10 32 7 -9 14
-50 23 -75 16z"/>
<path d="M1566 262 c-4 -7 -46 -115 -46 -119 0 -2 7 -3 15 -3 8 0 15 7 15 15
0 10 10 15 30 15 20 0 30 -5 30 -15 0 -8 7 -15 15 -15 16 0 20 20 7 36 -5 5
-15 28 -22 52 -12 38 -32 54 -44 34z m30 -69 c-2 -3 -11 -3 -19 -1 -11 2 -12
9 -5 28 l10 25 9 -24 c5 -13 7 -26 5 -28z"/>
<path d="M1726 257 c-27 -20 -17 -49 22 -59 18 -5 32 -15 32 -23 0 -18 -23
-19 -50 -3 -26 16 -40 0 -16 -18 26 -18 70 -18 86 1 20 24 3 52 -35 59 -19 4
-35 11 -35 16 0 17 22 22 46 9 25 -13 45 -6 28 10 -18 18 -59 22 -78 8z"/>
</g>
</svg>
